<svg id="Layer_1" data-name="Layer 1" xmlns="http://www.w3.org/2000/svg" viewBox="0 0 231.96 117.95"><defs><style>.cls-1{fill:#1d1d1b;}.cls-2{fill:#660f2f;}.cls-3{fill:#a1163e;}.cls-4{fill:#2a6d89;}.cls-5{fill:#55a2cf;}</style></defs><path class="cls-1" d="M105.2,195.76H99.38v16H97V204.4c-3.6,3.36-9.66,7.92-18.84,7.92-13.32,0-21.9-7.86-21.9-19.92,0-11.4,10-21,21.72-21,9.06,0,14.1,5,17.16,10.08V172h2.4v14.76c-2.82,0-2.4-.06-2.4-.06-4-8.94-9.24-12.9-17.16-12.9-10.44,0-19.32,8.52-19.32,18.6,0,10.8,7.5,17.52,19.5,17.52,9.84,0,15.66-5.64,18.84-8.82v-5.34H84.08v-2.4H105.2Z" transform="translate(-56.24 -171.4)"/><path class="cls-1" d="M142.1,211.72h-34v-2.4h5.64V174.4h-5.64V172h16.08v2.4h-8v34.92H139.7V197.86h2.4Z" transform="translate(-56.24 -171.4)"/><path class="cls-1" d="M195,211.72H178.82v-2.4h7.38l-4.56-9.12h-24.9l-4.5,9.12h7.32v2.4H143.48v-2.4h6.06l17.4-34.92h-4.56V172h7.92l18.54,37.32H195ZM180.44,197.8l-11.22-22.56L157.94,197.8Z" transform="translate(-56.24 -171.4)"/><path class="cls-1" d="M222.26,212.32c-9.6,0-18.3-4.56-22-6.78v6.18h-2.4V197.86h2.4v4.86c2.28,1.44,11.76,7.2,22,7.2,9.48,0,15.6-3.9,15.6-10,0-4.92-3.84-7.74-10.44-7.74a56.56,56.56,0,0,0-7.08.72,69.58,69.58,0,0,1-9.24.84c-8.22,0-12.78-3.36-12.78-9.54,0-7.08,7.5-12.84,16.68-12.84a25.78,25.78,0,0,1,18.54,7.8V172h2.4v10.86h-2.4A24,24,0,0,0,215,173.8c-7.86,0-14.28,4.68-14.28,10.44,0,4.74,3.48,7.14,10.38,7.14a65.25,65.25,0,0,0,8.88-.84,60.66,60.66,0,0,1,7.44-.72c9.42,0,12.84,5.28,12.84,10.14C240.26,207.46,233.18,212.32,222.26,212.32Z" transform="translate(-56.24 -171.4)"/><path class="cls-1" d="M270.2,212.32c-9.6,0-18.3-4.56-22-6.78v6.18h-2.4V197.86h2.4v4.86c2.28,1.44,11.76,7.2,22,7.2,9.48,0,15.6-3.9,15.6-10,0-4.92-3.84-7.74-10.44-7.74a56.56,56.56,0,0,0-7.08.72,69.58,69.58,0,0,1-9.24.84c-8.22,0-12.78-3.36-12.78-9.54,0-7.08,7.5-12.84,16.68-12.84a25.78,25.78,0,0,1,18.54,7.8V172h2.4v10.86h-2.4a24,24,0,0,0-18.54-9.06c-7.86,0-14.28,4.68-14.28,10.44,0,4.74,3.48,7.14,10.38,7.14a65.25,65.25,0,0,0,8.88-.84,60.66,60.66,0,0,1,7.44-.72c9.42,0,12.84,5.28,12.84,10.14C288.2,207.46,281.12,212.32,270.2,212.32Z" transform="translate(-56.24 -171.4)"/><path class="cls-1" d="M190.82,262.29H174.68v-2.4h7.38l-4.56-9.12H152.6l-4.5,9.12h7.32v2.4H139.34v-2.4h6.06L162.8,225h-4.56v-2.4h7.92l18.54,37.32h6.12ZM176.3,248.37l-11.22-22.56L153.8,248.37Z" transform="translate(-56.24 -171.4)"/><path class="cls-1" d="M240.8,262.29h-7.92l-.12-1.08c-.72-6.3-5-13.62-14.46-13.62H201.74v12.3h8.1v2.4H193.7v-2.4h5.64V225H193.7v-2.4h25.5c11.34,0,15.42,6.48,15.42,12.54,0,5.58-3.54,9.84-9,11.58,5.58,2.58,8.46,8.1,9.36,13.2h5.82ZM219.2,225H201.74v20.22h18c8.64,0,12.48-5,12.48-10.08C232.22,228.75,227.36,225,219.2,225Z" transform="translate(-56.24 -171.4)"/><path class="cls-1" d="M281.66,262.29h-38v-2.4H250V225h-6.3v-2.4h36.78v10.14h-2.4V225H252.38v16.26h16.14v-5.88h2.4v14.22h-2.4v-5.94H252.38v16.26h26.88v-8.64h2.4Z" transform="translate(-56.24 -171.4)"/><polygon class="cls-2" points="44.49 81.44 53.04 62.15 36.62 63.76 44.49 81.44"/><path class="cls-3" d="M107.61,235a11.43,11.43,0,0,1-5.07,0c-2.91-.62-5.36,1.15-6.62,1.06s-2.14-.92-2.74-.74-.33-1.19.5-1.42A14.47,14.47,0,0,1,99,234c1.13.19,2.55-.91,3.92-1.06a25.29,25.29,0,0,1,5.2.21c1.68.23,1.25.45.69,1S107.61,235,107.61,235Z" transform="translate(-56.24 -171.4)"/><path class="cls-1" d="M148.69,224.85h-5.91L126.4,261.62h-2.6L112.93,237.2,102,261.62H99.45L83.08,224.85h-6v-2.36H90.47v2.36H85.68l15.07,33.87,10.88-24.41-4.2-9.46h-6v-2.36H117.3v2.36H110l15.07,33.87,15.08-33.87h-7.33v-2.36h15.84Z" transform="translate(-56.24 -171.4)"/><rect class="cls-1" x="43.21" y="90.22" width="2.55" height="21.39"/><polygon class="cls-1" points="44.48 110.74 30.03 117.09 58.94 117.09 44.48 110.74"/><polygon class="cls-1" points="68.88 111.6 54.43 117.95 83.33 117.95 68.88 111.6"/><rect class="cls-1" x="67.56" y="90.22" width="2.64" height="22.14"/><polygon class="cls-4" points="68.73 80.73 60.19 61.47 76.6 63.07 68.73 80.73"/><path class="cls-5" d="M118.1,234.34a11.39,11.39,0,0,0,5.06,0c2.91-.62,5.36,1.14,6.62,1s2.14-.92,2.73-.74.33-1.19-.5-1.41a14.4,14.4,0,0,0-5.27.06c-1.13.2-2.56-.9-3.93-1.05a25.22,25.22,0,0,0-5.19.21c-1.68.22-1.25.45-.69.94S118.1,234.34,118.1,234.34Z" transform="translate(-56.24 -171.4)"/></svg>