<svg id="Reactangle" xmlns="http://www.w3.org/2000/svg" width="665" height="665" viewBox="0 0 665 665">
  <defs>
    <style>
      .cls-1 {
        fill: #fff;
        stroke-width: 20px;
      }

      .cls-1, .cls-2 {
        stroke: #231f20;
        stroke-miterlimit: 10;
      }

      .cls-2 {
        fill: #231f20;
      }
    </style>
  </defs>
  <rect class="cls-1" x="219.05" y="322.1" width="450.23" height="450.23" transform="translate(405.37 -368.51) rotate(45)"/>
  <g id="Text">
    <g>
      <path class="cls-2" d="M431.48,647.81H427c-.3-6-.3-9.37-.3-23.56-3.93,19.33-14.5,26-28.4,26-18.43,0-30.81-9.66-30.81-47.42V489.52c0-30.82,10.87-45.32,32.62-45.32,28.7,0,30.81,26.28,30.81,45.92v4.53h-5.13v-5.74c0-22.05-4.53-40.18-25.68-40.18-19.63,0-27.49,13.3-27.49,41.69V601.89c0,26.28,5.74,43.8,25.68,43.8,23.56,0,28.4-23.86,28.4-60.11V548.42H395.23v-4.53h36.25Z" transform="translate(-111.66 -214.71)"/>
      <path class="cls-2" d="M520.89,598.87v5.44c0,20.24-3,45.91-31.11,45.91-25.38,0-31.72-19-31.72-49.24V489.21c0-33.23,12.69-45,32-45,27.79,0,29.91,26,29.91,45.32v5.73h-5.14v-6c0-22.65-4.53-40.48-25.07-40.48-13.29,0-26.58,6.95-26.58,39.58V601c0,34.74,9.66,44.71,26.88,44.71,20.54,0,25.68-16.91,25.68-41.38v-5.44Z" transform="translate(-111.66 -214.71)"/>
    </g>
  </g>
</svg>
